# xmcd
#
# Track frame offsets:
#	150
#	14483
#	27045
#	40835
#	56983
#	70158
#	82254
#	94669
#	107695
#	120929
#	134575
#	144436
#	155431
#	166479
#	175892
#	189081
#	199390
#	209055
#	220864
#	229039
#	241233
#	253294
#	264062
#	275524
#
# Disc length: 3780
#
# Revision: 1
# Processed by: cddbd v1.5.1PL0 Copyright (c) Steve Scherf et al.
# Submitted via: EasyCDDAExtractor 4.5.2.1
# Normalized: r0:TDELIM( - )
#
DISCID=5d0ec218
DTITLE=Various Artist - Rare And Unreleased Vol 12
DYEAR=1900
DGENRE=Oldies
TTITLE0=Reminiscents - Oh Let Me Dream
TTITLE1=Miracles - After All
TTITLE2=Emeralds - School Boy's Love(unr)
TTITLE3=Sultans - A Cottage For Sale
TTITLE4=Four Blades - I Want You To Be My Girl
TTITLE5=Four Knights - That Feeling In The Moonlight
TTITLE6=Pageants (Tony Dee and the) - Saturday Romance
TTITLE7=Cor-Dons - Some Kinda Wonderful
TTITLE8=Ebonaires - Thinkin' and Thinkin'
TTITLE9=Epics - Lonely
TTITLE10=Art Lassiter and group - Too Late For Tears
TTITLE11=Ramblers - Don't You Know
TTITLE12=Strangers - Chapel Of Dreams(unr)
TTITLE13=Starfires - Under The Stars
TTITLE14=Harptones - I Gotta Have Your Love
TTITLE15=Feathers - Johnny Darling
TTITLE16=Bobby Pedrick and group - That Girl Is You
TTITLE17=Kool Gents - Picture On The Wall
TTITLE18=Suedes - Bunny(unr)
TTITLE19=Pyramids (Ruby Whitaker and the) - I Get The Feeling
TTITLE20=Miss Frankie Nolan (bb Ebbtides) - A Week From Sunday
TTITLE21=Delighters (Donald Jenkins and the) - Adios (My Secret Love)
TTITLE22=Progressions - Zoom(unr)
TTITLE23=Combinations - Voodoo
EXTD=
EXTT0=
EXTT1=
EXTT2=
EXTT3=
EXTT4=
EXTT5=
EXTT6=
EXTT7=
EXTT8=
EXTT9=
EXTT10=
EXTT11=
EXTT12=
EXTT13=
EXTT14=
EXTT15=
EXTT16=
EXTT17=
EXTT18=
EXTT19=
EXTT20=
EXTT21=
EXTT22=
EXTT23=
PLAYORDER=
